<svg width="4660" height="4951" xmlns="http://www.w3.org/2000/svg" xmlns:xlink="http://www.w3.org/1999/xlink" overflow="hidden"><defs><clipPath id="clip0"><rect x="-563" y="26" width="4660" height="4951"/></clipPath></defs><g clip-path="url(#clip0)" transform="translate(563 -26)"><path d="M0.238136 0 182.384 0 4477.85 0 4660 0 4660 149.806C4660 1144.85 4660 2650.3 4660 4927.97L4660 4951 4477.85 4951 590.335 4951 408.189 4951 409.098 4933.95C409.098 4441.41 0 4441.41 0 3948.86 0 3456.32 409.098 3456.32 409.097 2963.77 409.097 2471.23 0 2471.23 0 1978.68 0 1486.14 409.097 1486.14 409.097 993.594 409.097 501.049 0 501.049 0 8.50372Z" fill="#FDC36F" fill-rule="evenodd" transform="matrix(-1 0 0 1 4097 26.0001)"/></g></svg>